<?xml version="1.0" encoding="UTF-8" standalone="no"?>
<!DOCTYPE svg PUBLIC "-//W3C//DTD SVG 1.1//EN"
 "http://www.w3.org/Graphics/SVG/1.1/DTD/svg11.dtd">
<!-- Generated by graphviz version 2.43.0 (0)
 -->
<!-- Title: dependencies Pages: 1 -->
<svg width="3018pt" height="819pt"
 viewBox="0.00 0.00 3017.69 819.00" xmlns="http://www.w3.org/2000/svg" xmlns:xlink="http://www.w3.org/1999/xlink">
<g id="graph0" class="graph" transform="scale(1 1) rotate(0) translate(4 815)">
<title>dependencies</title>
<polygon fill="white" stroke="transparent" points="-4,4 -4,-815 3013.69,-815 3013.69,4 -4,4"/>
<g id="clust1" class="cluster">
<title>cluster0</title>
<polygon fill="#efdaf5" stroke="#efdaf5" points="1044.69,-8 1044.69,-83 1126.69,-83 1126.69,-8 1044.69,-8"/>
<text text-anchor="middle" x="1085.69" y="-67.8" font-family="Times,serif" font-size="14.00">log4j&#45;api</text>
</g>
<g id="clust2" class="cluster">
<title>cluster1</title>
<polygon fill="#c9daee" stroke="#c9daee" points="2744.69,-188 2744.69,-263 2862.69,-263 2862.69,-188 2744.69,-188"/>
<text text-anchor="middle" x="2803.69" y="-247.8" font-family="Times,serif" font-size="14.00">tomcat&#45;jsp&#45;api</text>
</g>
<g id="clust3" class="cluster">
<title>cluster2</title>
<polygon fill="#c3d6dc" stroke="#c3d6dc" points="900.69,-368 900.69,-443 1054.69,-443 1054.69,-368 900.69,-368"/>
<text text-anchor="middle" x="977.69" y="-427.8" font-family="Times,serif" font-size="14.00">struts2&#45;plugins</text>
</g>
<g id="clust4" class="cluster">
<title>cluster3</title>
<polygon fill="#dbe2c8" stroke="#dbe2c8" points="535.69,-368 535.69,-443 698.69,-443 698.69,-368 535.69,-368"/>
<text text-anchor="middle" x="617.19" y="-427.8" font-family="Times,serif" font-size="14.00">struts2&#45;async&#45;plugin</text>
</g>
<g id="clust5" class="cluster">
<title>cluster4</title>
<polygon fill="#d6ccc1" stroke="#d6ccc1" points="1993.69,-368 1993.69,-443 2161.69,-443 2161.69,-368 1993.69,-368"/>
<text text-anchor="middle" x="2077.69" y="-427.8" font-family="Times,serif" font-size="14.00">struts2&#45;spring&#45;plugin</text>
</g>
<g id="clust6" class="cluster">
<title>cluster5</title>
<polygon fill="#cfc1e6" stroke="#cfc1e6" points="2087.69,-188 2087.69,-263 2224.69,-263 2224.69,-188 2087.69,-188"/>
<text text-anchor="middle" x="2156.19" y="-247.8" font-family="Times,serif" font-size="14.00">commons&#45;jci&#45;fam</text>
</g>
<g id="clust7" class="cluster">
<title>cluster6</title>
<polygon fill="#d8e5ca" stroke="#d8e5ca" points="900.69,-188 900.69,-263 1054.69,-263 1054.69,-188 900.69,-188"/>
<text text-anchor="middle" x="977.69" y="-247.8" font-family="Times,serif" font-size="14.00">struts2&#45;core</text>
</g>
<g id="clust8" class="cluster">
<title>cluster7</title>
<polygon fill="#e1f0eb" stroke="#e1f0eb" points="1971.69,-8 1971.69,-83 2140.69,-83 2140.69,-8 1971.69,-8"/>
<text text-anchor="middle" x="2056.19" y="-67.8" font-family="Times,serif" font-size="14.00">velocity&#45;tools&#45;generic</text>
</g>
<g id="clust9" class="cluster">
<title>cluster8</title>
<polygon fill="#dfc4d1" stroke="#dfc4d1" points="706.69,-368 706.69,-443 860.69,-443 860.69,-368 706.69,-368"/>
<text text-anchor="middle" x="783.69" y="-427.8" font-family="Times,serif" font-size="14.00">struts2&#45;cdi&#45;plugin</text>
</g>
<g id="clust10" class="cluster">
<title>cluster9</title>
<polygon fill="#c0f7d8" stroke="#c0f7d8" points="1765.69,-548 1765.69,-623 1983.69,-623 1983.69,-548 1765.69,-548"/>
<text text-anchor="middle" x="1874.69" y="-607.8" font-family="Times,serif" font-size="14.00">struts2&#45;embeddedjsp&#45;plugin</text>
</g>
<g id="clust11" class="cluster">
<title>cluster10</title>
<polygon fill="#e2f0c6" stroke="#e2f0c6" points="763.69,-8 763.69,-83 911.69,-83 911.69,-8 763.69,-8"/>
<text text-anchor="middle" x="837.69" y="-67.8" font-family="Times,serif" font-size="14.00">struts&#45;annotations</text>
</g>
<g id="clust12" class="cluster">
<title>cluster11</title>
<polygon fill="#bfc9ca" stroke="#bfc9ca" points="1892.69,-368 1892.69,-443 1985.69,-443 1985.69,-368 1892.69,-368"/>
<text text-anchor="middle" x="1939.19" y="-427.8" font-family="Times,serif" font-size="14.00">tomcat&#45;juli</text>
</g>
<g id="clust13" class="cluster">
<title>cluster12</title>
<polygon fill="#bee7c4" stroke="#bee7c4" points="892.69,-548 892.69,-623 1063.69,-623 1063.69,-548 892.69,-548"/>
<text text-anchor="middle" x="978.19" y="-607.8" font-family="Times,serif" font-size="14.00">struts2&#45;portlet&#45;plugin</text>
</g>
<g id="clust14" class="cluster">
<title>cluster13</title>
<polygon fill="#d5dcc5" stroke="#d5dcc5" points="2870.69,-188 2870.69,-263 3001.69,-263 3001.69,-188 2870.69,-188"/>
<text text-anchor="middle" x="2936.19" y="-247.8" font-family="Times,serif" font-size="14.00">tomcat&#45;util&#45;scan</text>
</g>
<g id="clust15" class="cluster">
<title>cluster14</title>
<polygon fill="#e2c1bd" stroke="#e2c1bd" points="2232.69,-188 2232.69,-263 2378.69,-263 2378.69,-188 2232.69,-188"/>
<text text-anchor="middle" x="2305.69" y="-247.8" font-family="Times,serif" font-size="14.00">tomcat&#45;servlet&#45;api</text>
</g>
<g id="clust16" class="cluster">
<title>cluster15</title>
<polygon fill="#b8cbb9" stroke="#b8cbb9" points="1806.69,-8 1806.69,-83 1963.69,-83 1963.69,-8 1806.69,-8"/>
<text text-anchor="middle" x="1885.19" y="-67.8" font-family="Times,serif" font-size="14.00">commons&#45;digester3</text>
</g>
<g id="clust17" class="cluster">
<title>cluster16</title>
<polygon fill="#ddeecd" stroke="#ddeecd" points="1062.69,-368 1062.69,-443 1216.69,-443 1216.69,-368 1062.69,-368"/>
<text text-anchor="middle" x="1139.69" y="-427.8" font-family="Times,serif" font-size="14.00">struts2&#45;dwr&#45;plugin</text>
</g>
<g id="clust18" class="cluster">
<title>cluster17</title>
<polygon fill="#d7bdf4" stroke="#d7bdf4" points="1514.69,-188 1514.69,-263 1688.69,-263 1688.69,-188 1514.69,-188"/>
<text text-anchor="middle" x="1601.69" y="-247.8" font-family="Times,serif" font-size="14.00">velocity&#45;tools&#45;view&#45;jsp</text>
</g>
<g id="clust19" class="cluster">
<title>cluster18</title>
<polygon fill="#dcbaf6" stroke="#dcbaf6" points="1224.69,-368 1224.69,-443 1378.69,-443 1378.69,-368 1224.69,-368"/>
<text text-anchor="middle" x="1301.69" y="-427.8" font-family="Times,serif" font-size="14.00">struts2&#45;gxp&#45;plugin</text>
</g>
<g id="clust20" class="cluster">
<title>cluster19</title>
<polygon fill="#cbbbbc" stroke="#cbbbbc" points="2386.69,-188 2386.69,-263 2478.69,-263 2478.69,-188 2386.69,-188"/>
<text text-anchor="middle" x="2432.69" y="-247.8" font-family="Times,serif" font-size="14.00">tomcat&#45;api</text>
</g>
<g id="clust21" class="cluster">
<title>cluster20</title>
<polygon fill="#c1cecc" stroke="#c1cecc" points="1585.69,-8 1585.69,-83 1713.69,-83 1713.69,-8 1585.69,-8"/>
<text text-anchor="middle" x="1649.69" y="-67.8" font-family="Times,serif" font-size="14.00">commons&#45;lang3</text>
</g>
<g id="clust22" class="cluster">
<title>cluster21</title>
<polygon fill="#c2e6c9" stroke="#c2e6c9" points="1147.69,-548 1147.69,-623 1375.69,-623 1375.69,-548 1147.69,-548"/>
<text text-anchor="middle" x="1261.69" y="-607.8" font-family="Times,serif" font-size="14.00">struts2&#45;config&#45;browser&#45;plugin</text>
</g>
<g id="clust23" class="cluster">
<title>cluster22</title>
<polygon fill="#bac9d5" stroke="#bac9d5" points="1416.69,-368 1416.69,-443 1616.69,-443 1616.69,-368 1416.69,-368"/>
<text text-anchor="middle" x="1516.69" y="-427.8" font-family="Times,serif" font-size="14.00">struts2&#45;convention&#45;plugin</text>
</g>
<g id="clust24" class="cluster">
<title>cluster23</title>
<polygon fill="#dce5bf" stroke="#dce5bf" points="1696.69,-188 1696.69,-263 1856.69,-263 1856.69,-188 1696.69,-188"/>
<text text-anchor="middle" x="1776.69" y="-247.8" font-family="Times,serif" font-size="14.00">velocity&#45;engine&#45;core</text>
</g>
<g id="clust25" class="cluster">
<title>cluster24</title>
<polygon fill="#c5e1e3" stroke="#c5e1e3" points="919.69,-8 919.69,-83 1036.69,-83 1036.69,-8 919.69,-8"/>
<text text-anchor="middle" x="978.19" y="-67.8" font-family="Times,serif" font-size="14.00">commons&#45;text</text>
</g>
<g id="clust26" class="cluster">
<title>cluster25</title>
<polygon fill="#daf4f5" stroke="#daf4f5" points="2486.69,-188 2486.69,-263 2618.69,-263 2618.69,-188 2486.69,-188"/>
<text text-anchor="middle" x="2552.69" y="-247.8" font-family="Times,serif" font-size="14.00">tomcat&#45;jasper&#45;el</text>
</g>
<g id="clust27" class="cluster">
<title>cluster26</title>
<polygon fill="#c2cbed" stroke="#c2cbed" points="2626.69,-188 2626.69,-263 2736.69,-263 2736.69,-188 2626.69,-188"/>
<text text-anchor="middle" x="2681.69" y="-247.8" font-family="Times,serif" font-size="14.00">tomcat&#45;el&#45;api</text>
</g>
<g id="clust28" class="cluster">
<title>cluster27</title>
<polygon fill="#ded9d6" stroke="#ded9d6" points="845.69,-728 845.69,-803 1000.69,-803 1000.69,-728 845.69,-728"/>
<text text-anchor="middle" x="923.19" y="-787.8" font-family="Times,serif" font-size="14.00">struts2&#45;junit&#45;plugin</text>
</g>
<g id="clust29" class="cluster">
<title>cluster28</title>
<polygon fill="#d6e0c1" stroke="#d6e0c1" points="1930.69,-188 1930.69,-263 2079.69,-263 2079.69,-188 1930.69,-188"/>
<text text-anchor="middle" x="2005.19" y="-247.8" font-family="Times,serif" font-size="14.00">velocity&#45;tools&#45;view</text>
</g>
<g id="clust30" class="cluster">
<title>cluster29</title>
<polygon fill="#c2e4d9" stroke="#c2e4d9" points="1653.69,-368 1653.69,-443 1831.69,-443 1831.69,-368 1653.69,-368"/>
<text text-anchor="middle" x="1742.69" y="-427.8" font-family="Times,serif" font-size="14.00">struts2&#45;velocity&#45;plugin</text>
</g>
<g id="clust31" class="cluster">
<title>cluster30</title>
<polygon fill="#ecc8d9" stroke="#ecc8d9" points="66.69,-368 66.69,-443 298.69,-443 298.69,-368 66.69,-368"/>
<text text-anchor="middle" x="182.69" y="-427.8" font-family="Times,serif" font-size="14.00">struts2&#45;bean&#45;validation&#45;plugin</text>
</g>
<g id="clust32" class="cluster">
<title>cluster31</title>
<polygon fill="#def0d2" stroke="#def0d2" points="2864.69,-8 2864.69,-83 2959.69,-83 2959.69,-8 2864.69,-8"/>
<text text-anchor="middle" x="2912.19" y="-67.8" font-family="Times,serif" font-size="14.00">tomcat&#45;util</text>
</g>
<g id="clust33" class="cluster">
<title>cluster32</title>
<polygon fill="#c7c2f7" stroke="#c7c2f7" points="2494.69,-368 2494.69,-443 2609.69,-443 2609.69,-368 2494.69,-368"/>
<text text-anchor="middle" x="2552.19" y="-427.8" font-family="Times,serif" font-size="14.00">tomcat&#45;jasper</text>
</g>
<g id="clust34" class="cluster">
<title>cluster33</title>
<polygon fill="#e4d7d5" stroke="#e4d7d5" points="306.69,-368 306.69,-443 527.69,-443 527.69,-368 306.69,-368"/>
<text text-anchor="middle" x="417.19" y="-427.8" font-family="Times,serif" font-size="14.00">struts2&#45;portlet&#45;mocks&#45;plugin</text>
</g>
<!-- N2 -->
<g id="node1" class="node">
<title>N2</title>
<ellipse fill="white" stroke="#b0b0b0" cx="1085.69" cy="-34" rx="33.49" ry="18"/>
<text text-anchor="middle" x="1085.69" y="-30.9" font-family="Times,serif" font-size="12.00" fill="BLUE">2.13.3</text>
</g>
<!-- N23 -->
<g id="node2" class="node">
<title>N23</title>
<ellipse fill="white" stroke="#b0b0b0" cx="2785.69" cy="-214" rx="33.49" ry="18"/>
<text text-anchor="middle" x="2785.69" y="-210.9" font-family="Times,serif" font-size="12.00" fill="BLUE">8.5.53</text>
</g>
<!-- N6 -->
<g id="node3" class="node">
<title>N6</title>
<ellipse fill="white" stroke="#b0b0b0" cx="977.69" cy="-394" rx="68.89" ry="18"/>
<text text-anchor="middle" x="977.69" y="-390.9" font-family="Times,serif" font-size="12.00" fill="#000000">2.6&#45;SNAPSHOT</text>
</g>
<!-- N1 -->
<g id="node7" class="node">
<title>N1</title>
<ellipse fill="white" stroke="#b0b0b0" cx="977.69" cy="-214" rx="68.89" ry="18"/>
<text text-anchor="middle" x="977.69" y="-210.9" font-family="Times,serif" font-size="12.00" fill="#000000">2.6&#45;SNAPSHOT</text>
</g>
<!-- N6&#45;&gt;N1 -->
<g id="edge35" class="edge">
<title>N6&#45;&gt;N1</title>
<path fill="none" stroke="#b0b0b0" d="M977.69,-375.93C977.69,-344.97 977.69,-279.3 977.69,-242.13"/>
<polygon fill="#b0b0b0" stroke="#b0b0b0" points="981.19,-242.02 977.69,-232.02 974.19,-242.02 981.19,-242.02"/>
</g>
<!-- N7 -->
<g id="node4" class="node">
<title>N7</title>
<ellipse fill="white" stroke="#b0b0b0" cx="621.69" cy="-394" rx="68.89" ry="18"/>
<text text-anchor="middle" x="621.69" y="-390.9" font-family="Times,serif" font-size="12.00" fill="#000000">2.6&#45;SNAPSHOT</text>
</g>
<!-- N7&#45;&gt;N1 -->
<g id="edge42" class="edge">
<title>N7&#45;&gt;N1</title>
<path fill="none" stroke="#b0b0b0" d="M652.04,-377.82C716.33,-345.68 866.2,-270.75 937.98,-234.85"/>
<polygon fill="#b0b0b0" stroke="#b0b0b0" points="939.78,-237.87 947.16,-230.26 936.65,-231.61 939.78,-237.87"/>
</g>
<!-- N30 -->
<g id="node5" class="node">
<title>N30</title>
<ellipse fill="white" stroke="#b0b0b0" cx="2070.69" cy="-394" rx="68.89" ry="18"/>
<text text-anchor="middle" x="2070.69" y="-390.9" font-family="Times,serif" font-size="12.00" fill="#000000">2.6&#45;SNAPSHOT</text>
</g>
<!-- N31 -->
<g id="node6" class="node">
<title>N31</title>
<ellipse fill="white" stroke="#b0b0b0" cx="2122.69" cy="-214" rx="27" ry="18"/>
<text text-anchor="middle" x="2122.69" y="-210.9" font-family="Times,serif" font-size="12.00" fill="BLUE">1.1</text>
</g>
<!-- N30&#45;&gt;N31 -->
<g id="edge30" class="edge">
<title>N30&#45;&gt;N31</title>
<path fill="none" stroke="#b0b0b0" d="M2075.68,-375.93C2084.78,-344.75 2104.17,-278.4 2114.99,-241.37"/>
<polygon fill="#b0b0b0" stroke="#b0b0b0" points="2118.35,-242.34 2117.79,-231.76 2111.63,-240.37 2118.35,-242.34"/>
</g>
<!-- N30&#45;&gt;N1 -->
<g id="edge37" class="edge">
<title>N30&#45;&gt;N1</title>
<path fill="none" stroke="#b0b0b0" d="M2030.63,-379.34C2017.68,-375.27 2003.18,-371.08 1989.69,-368 1642.54,-288.65 1218.73,-239.77 1051.02,-222.29"/>
<polygon fill="#b0b0b0" stroke="#b0b0b0" points="1051.38,-218.8 1041.07,-221.25 1050.66,-225.77 1051.38,-218.8"/>
</g>
<!-- N3 -->
<g id="node21" class="node">
<title>N3</title>
<ellipse fill="white" stroke="#b0b0b0" cx="1649.69" cy="-34" rx="27" ry="18"/>
<text text-anchor="middle" x="1649.69" y="-30.9" font-family="Times,serif" font-size="12.00" fill="BLUE">3.10</text>
</g>
<!-- N30&#45;&gt;N3 -->
<g id="edge38" class="edge">
<title>N30&#45;&gt;N3</title>
<path fill="none" stroke="#b0b0b0" d="M2048.1,-376.84C2017.56,-354.13 1962.79,-310.23 1926.69,-263 1903.99,-233.31 1913.75,-215.72 1888.69,-188 1827.82,-120.68 1730.79,-71.02 1681.17,-48.46"/>
<polygon fill="#b0b0b0" stroke="#b0b0b0" points="1682.46,-45.21 1671.9,-44.32 1679.6,-51.6 1682.46,-45.21"/>
</g>
<!-- N1&#45;&gt;N2 -->
<g id="edge34" class="edge">
<title>N1&#45;&gt;N2</title>
<path fill="none" stroke="#b0b0b0" d="M988.05,-195.93C1007.22,-164.33 1048.33,-96.57 1070.6,-59.86"/>
<polygon fill="#b0b0b0" stroke="#b0b0b0" points="1073.64,-61.61 1075.84,-51.24 1067.66,-57.97 1073.64,-61.61"/>
</g>
<!-- N5 -->
<g id="node11" class="node">
<title>N5</title>
<ellipse fill="white" stroke="#b0b0b0" cx="874.69" cy="-34" rx="28.87" ry="18"/>
<text text-anchor="middle" x="874.69" y="-30.9" font-family="Times,serif" font-size="12.00" fill="BLUE">1.0.7</text>
</g>
<!-- N1&#45;&gt;N5 -->
<g id="edge31" class="edge">
<title>N1&#45;&gt;N5</title>
<path fill="none" stroke="#b0b0b0" d="M967.81,-195.93C949.6,-164.46 910.65,-97.15 889.35,-60.33"/>
<polygon fill="#b0b0b0" stroke="#b0b0b0" points="892.13,-58.14 884.09,-51.24 886.07,-61.65 892.13,-58.14"/>
</g>
<!-- N1&#45;&gt;N3 -->
<g id="edge15" class="edge">
<title>N1&#45;&gt;N3</title>
<path fill="none" stroke="#b0b0b0" d="M1024.14,-200.7C1151.34,-167 1503.21,-73.8 1615.07,-44.17"/>
<polygon fill="#b0b0b0" stroke="#b0b0b0" points="1616.07,-47.53 1624.84,-41.58 1614.27,-40.76 1616.07,-47.53"/>
</g>
<!-- N4 -->
<g id="node25" class="node">
<title>N4</title>
<ellipse fill="white" stroke="#b0b0b0" cx="977.69" cy="-34" rx="27" ry="18"/>
<text text-anchor="middle" x="977.69" y="-30.9" font-family="Times,serif" font-size="12.00" fill="BLUE">1.8</text>
</g>
<!-- N1&#45;&gt;N4 -->
<g id="edge5" class="edge">
<title>N1&#45;&gt;N4</title>
<path fill="none" stroke="#b0b0b0" d="M977.69,-195.93C977.69,-164.97 977.69,-99.3 977.69,-62.13"/>
<polygon fill="#b0b0b0" stroke="#b0b0b0" points="981.19,-62.02 977.69,-52.02 974.19,-62.02 981.19,-62.02"/>
</g>
<!-- N13 -->
<g id="node8" class="node">
<title>N13</title>
<ellipse fill="white" stroke="#b0b0b0" cx="2006.69" cy="-34" rx="27" ry="18"/>
<text text-anchor="middle" x="2006.69" y="-30.9" font-family="Times,serif" font-size="12.00" fill="BLUE">3.0</text>
</g>
<!-- N9 -->
<g id="node9" class="node">
<title>N9</title>
<ellipse fill="white" stroke="#b0b0b0" cx="783.69" cy="-394" rx="68.89" ry="18"/>
<text text-anchor="middle" x="783.69" y="-390.9" font-family="Times,serif" font-size="12.00" fill="#000000">2.6&#45;SNAPSHOT</text>
</g>
<!-- N9&#45;&gt;N1 -->
<g id="edge21" class="edge">
<title>N9&#45;&gt;N1</title>
<path fill="none" stroke="#b0b0b0" d="M801.59,-376.57C836.24,-344.78 912.55,-274.77 952.37,-238.23"/>
<polygon fill="#b0b0b0" stroke="#b0b0b0" points="954.83,-240.73 959.83,-231.39 950.09,-235.57 954.83,-240.73"/>
</g>
<!-- N19 -->
<g id="node10" class="node">
<title>N19</title>
<ellipse fill="white" stroke="#b0b0b0" cx="1874.69" cy="-574" rx="68.89" ry="18"/>
<text text-anchor="middle" x="1874.69" y="-570.9" font-family="Times,serif" font-size="12.00" fill="#000000">2.6&#45;SNAPSHOT</text>
</g>
<!-- N19&#45;&gt;N1 -->
<g id="edge8" class="edge">
<title>N19&#45;&gt;N1</title>
<path fill="none" stroke="#b0b0b0" d="M1805.79,-571.92C1706.81,-566.74 1524.07,-543.13 1412.69,-443 1385.99,-419 1408.32,-393.14 1382.69,-368 1289.95,-277.03 1137.82,-239.16 1048.78,-224.15"/>
<polygon fill="#b0b0b0" stroke="#b0b0b0" points="1049.2,-220.67 1038.77,-222.51 1048.07,-227.58 1049.2,-220.67"/>
</g>
<!-- N20 -->
<g id="node12" class="node">
<title>N20</title>
<ellipse fill="white" stroke="#b0b0b0" cx="1935.69" cy="-394" rx="33.49" ry="18"/>
<text text-anchor="middle" x="1935.69" y="-390.9" font-family="Times,serif" font-size="12.00" fill="BLUE">8.5.53</text>
</g>
<!-- N19&#45;&gt;N20 -->
<g id="edge22" class="edge">
<title>N19&#45;&gt;N20</title>
<path fill="none" stroke="#b0b0b0" d="M1880.54,-555.93C1891.22,-524.75 1913.96,-458.4 1926.65,-421.37"/>
<polygon fill="#b0b0b0" stroke="#b0b0b0" points="1930.02,-422.35 1929.95,-411.76 1923.39,-420.08 1930.02,-422.35"/>
</g>
<!-- N19&#45;&gt;N3 -->
<g id="edge20" class="edge">
<title>N19&#45;&gt;N3</title>
<path fill="none" stroke="#b0b0b0" d="M1876.02,-555.7C1880.83,-489.51 1895.23,-252.77 1860.69,-188 1821.85,-115.16 1731.21,-68.44 1682.33,-47.6"/>
<polygon fill="#b0b0b0" stroke="#b0b0b0" points="1683.43,-44.26 1672.85,-43.66 1680.74,-50.73 1683.43,-44.26"/>
</g>
<!-- N10 -->
<g id="node30" class="node">
<title>N10</title>
<ellipse fill="white" stroke="#b0b0b0" cx="1731.69" cy="-394" rx="68.89" ry="18"/>
<text text-anchor="middle" x="1731.69" y="-390.9" font-family="Times,serif" font-size="12.00" fill="#000000">2.6&#45;SNAPSHOT</text>
</g>
<!-- N19&#45;&gt;N10 -->
<g id="edge10" class="edge">
<title>N19&#45;&gt;N10</title>
<path fill="none" stroke="#b0b0b0" d="M1861.24,-556.25C1836,-524.85 1781.46,-456.95 1751.83,-420.07"/>
<polygon fill="#b0b0b0" stroke="#b0b0b0" points="1754.2,-417.43 1745.21,-411.83 1748.75,-421.82 1754.2,-417.43"/>
</g>
<!-- N21 -->
<g id="node33" class="node">
<title>N21</title>
<ellipse fill="white" stroke="#b0b0b0" cx="2552.69" cy="-394" rx="33.49" ry="18"/>
<text text-anchor="middle" x="2552.69" y="-390.9" font-family="Times,serif" font-size="12.00" fill="BLUE">8.5.53</text>
</g>
<!-- N19&#45;&gt;N21 -->
<g id="edge11" class="edge">
<title>N19&#45;&gt;N21</title>
<path fill="none" stroke="#b0b0b0" d="M1921.56,-560.7C2048.27,-527.43 2396,-436.14 2513.39,-405.32"/>
<polygon fill="#b0b0b0" stroke="#b0b0b0" points="2514.59,-408.62 2523.37,-402.7 2512.81,-401.85 2514.59,-408.62"/>
</g>
<!-- N33 -->
<g id="node13" class="node">
<title>N33</title>
<ellipse fill="white" stroke="#b0b0b0" cx="974.69" cy="-574" rx="68.89" ry="18"/>
<text text-anchor="middle" x="974.69" y="-570.9" font-family="Times,serif" font-size="12.00" fill="#000000">2.6&#45;SNAPSHOT</text>
</g>
<!-- N33&#45;&gt;N1 -->
<g id="edge44" class="edge">
<title>N33&#45;&gt;N1</title>
<path fill="none" stroke="#b0b0b0" d="M908.76,-568.52C708.62,-554.27 118.3,-507.1 62.69,-443 40.85,-417.82 41.15,-393.44 62.69,-368 169.84,-241.44 696.63,-219.49 898.64,-215.74"/>
<polygon fill="#b0b0b0" stroke="#b0b0b0" points="898.94,-219.24 908.88,-215.57 898.82,-212.24 898.94,-219.24"/>
</g>
<!-- N33&#45;&gt;N3 -->
<g id="edge40" class="edge">
<title>N33&#45;&gt;N3</title>
<path fill="none" stroke="#b0b0b0" d="M1031.21,-563.62C1185.17,-537.79 1601.8,-466.07 1620.69,-443 1641.81,-417.21 1633.8,-398.65 1620.69,-368 1594.1,-305.86 1537.28,-325.14 1510.69,-263 1497.58,-232.35 1498.67,-219.09 1510.69,-188 1533.35,-129.37 1590.07,-79.34 1623.64,-53.6"/>
<polygon fill="#b0b0b0" stroke="#b0b0b0" points="1625.75,-56.39 1631.64,-47.58 1621.54,-50.79 1625.75,-56.39"/>
</g>
<!-- N33&#45;&gt;N10 -->
<g id="edge19" class="edge">
<title>N33&#45;&gt;N10</title>
<path fill="none" stroke="#b0b0b0" d="M1032.99,-564.31C1174.87,-542.76 1534.89,-485.5 1648.69,-443 1666.51,-436.34 1684.96,-426.07 1699.93,-416.72"/>
<polygon fill="#b0b0b0" stroke="#b0b0b0" points="1702.22,-419.41 1708.76,-411.07 1698.45,-413.51 1702.22,-419.41"/>
</g>
<!-- N27 -->
<g id="node14" class="node">
<title>N27</title>
<ellipse fill="white" stroke="#b0b0b0" cx="2911.69" cy="-214" rx="33.49" ry="18"/>
<text text-anchor="middle" x="2911.69" y="-210.9" font-family="Times,serif" font-size="12.00" fill="BLUE">8.5.53</text>
</g>
<!-- N28 -->
<g id="node32" class="node">
<title>N28</title>
<ellipse fill="white" stroke="#b0b0b0" cx="2911.69" cy="-34" rx="33.49" ry="18"/>
<text text-anchor="middle" x="2911.69" y="-30.9" font-family="Times,serif" font-size="12.00" fill="BLUE">8.5.53</text>
</g>
<!-- N27&#45;&gt;N28 -->
<g id="edge43" class="edge">
<title>N27&#45;&gt;N28</title>
<path fill="none" stroke="#b0b0b0" d="M2911.69,-195.93C2911.69,-164.97 2911.69,-99.3 2911.69,-62.13"/>
<polygon fill="#b0b0b0" stroke="#b0b0b0" points="2915.19,-62.02 2911.69,-52.02 2908.19,-62.02 2915.19,-62.02"/>
</g>
<!-- N22 -->
<g id="node15" class="node">
<title>N22</title>
<ellipse fill="white" stroke="#b0b0b0" cx="2337.69" cy="-214" rx="33.49" ry="18"/>
<text text-anchor="middle" x="2337.69" y="-210.9" font-family="Times,serif" font-size="12.00" fill="BLUE">8.5.53</text>
</g>
<!-- N14 -->
<g id="node16" class="node">
<title>N14</title>
<ellipse fill="white" stroke="#b0b0b0" cx="1928.69" cy="-34" rx="27" ry="18"/>
<text text-anchor="middle" x="1928.69" y="-30.9" font-family="Times,serif" font-size="12.00" fill="BLUE">3.2</text>
</g>
<!-- N18 -->
<g id="node17" class="node">
<title>N18</title>
<ellipse fill="white" stroke="#b0b0b0" cx="1139.69" cy="-394" rx="68.89" ry="18"/>
<text text-anchor="middle" x="1139.69" y="-390.9" font-family="Times,serif" font-size="12.00" fill="#000000">2.6&#45;SNAPSHOT</text>
</g>
<!-- N18&#45;&gt;N1 -->
<g id="edge32" class="edge">
<title>N18&#45;&gt;N1</title>
<path fill="none" stroke="#b0b0b0" d="M1124.45,-376.25C1095.67,-344.63 1033.23,-276.03 999.83,-239.32"/>
<polygon fill="#b0b0b0" stroke="#b0b0b0" points="1002.09,-236.61 992.77,-231.57 996.91,-241.32 1002.09,-236.61"/>
</g>
<!-- N15 -->
<g id="node18" class="node">
<title>N15</title>
<ellipse fill="white" stroke="#b0b0b0" cx="1653.69" cy="-214" rx="27" ry="18"/>
<text text-anchor="middle" x="1653.69" y="-210.9" font-family="Times,serif" font-size="12.00" fill="BLUE">3.0</text>
</g>
<!-- N29 -->
<g id="node19" class="node">
<title>N29</title>
<ellipse fill="white" stroke="#b0b0b0" cx="1301.69" cy="-394" rx="68.89" ry="18"/>
<text text-anchor="middle" x="1301.69" y="-390.9" font-family="Times,serif" font-size="12.00" fill="#000000">2.6&#45;SNAPSHOT</text>
</g>
<!-- N29&#45;&gt;N1 -->
<g id="edge3" class="edge">
<title>N29&#45;&gt;N1</title>
<path fill="none" stroke="#b0b0b0" d="M1273.5,-377.52C1214.98,-345.36 1080.3,-271.37 1014.81,-235.39"/>
<polygon fill="#b0b0b0" stroke="#b0b0b0" points="1016.49,-232.32 1006.04,-230.58 1013.12,-238.46 1016.49,-232.32"/>
</g>
<!-- N26 -->
<g id="node20" class="node">
<title>N26</title>
<ellipse fill="white" stroke="#b0b0b0" cx="2437.69" cy="-214" rx="33.49" ry="18"/>
<text text-anchor="middle" x="2437.69" y="-210.9" font-family="Times,serif" font-size="12.00" fill="BLUE">8.5.53</text>
</g>
<!-- N16 -->
<g id="node22" class="node">
<title>N16</title>
<ellipse fill="white" stroke="#b0b0b0" cx="1261.69" cy="-574" rx="68.89" ry="18"/>
<text text-anchor="middle" x="1261.69" y="-570.9" font-family="Times,serif" font-size="12.00" fill="#000000">2.6&#45;SNAPSHOT</text>
</g>
<!-- N16&#45;&gt;N1 -->
<g id="edge18" class="edge">
<title>N16&#45;&gt;N1</title>
<path fill="none" stroke="#b0b0b0" d="M1209.49,-562.11C1117.71,-541.78 933.62,-495.36 896.69,-443 850.53,-377.56 918.03,-283.15 955.52,-239.2"/>
<polygon fill="#b0b0b0" stroke="#b0b0b0" points="958.21,-241.44 962.13,-231.6 952.93,-236.85 958.21,-241.44"/>
</g>
<!-- N16&#45;&gt;N10 -->
<g id="edge9" class="edge">
<title>N16&#45;&gt;N10</title>
<path fill="none" stroke="#b0b0b0" d="M1308.1,-560.67C1381.91,-540.35 1529.83,-496.68 1648.69,-443 1665.52,-435.4 1683.36,-425.37 1698.17,-416.44"/>
<polygon fill="#b0b0b0" stroke="#b0b0b0" points="1700.26,-419.27 1706.96,-411.06 1696.6,-413.3 1700.26,-419.27"/>
</g>
<!-- N17 -->
<g id="node23" class="node">
<title>N17</title>
<ellipse fill="white" stroke="#b0b0b0" cx="1495.69" cy="-394" rx="68.89" ry="18"/>
<text text-anchor="middle" x="1495.69" y="-390.9" font-family="Times,serif" font-size="12.00" fill="#000000">2.6&#45;SNAPSHOT</text>
</g>
<!-- N17&#45;&gt;N1 -->
<g id="edge2" class="edge">
<title>N17&#45;&gt;N1</title>
<path fill="none" stroke="#b0b0b0" d="M1455.47,-379.18C1361.87,-347.01 1129.61,-267.2 1027.36,-232.07"/>
<polygon fill="#b0b0b0" stroke="#b0b0b0" points="1028.47,-228.75 1017.88,-228.81 1026.2,-235.37 1028.47,-228.75"/>
</g>
<!-- N17&#45;&gt;N3 -->
<g id="edge14" class="edge">
<title>N17&#45;&gt;N3</title>
<path fill="none" stroke="#b0b0b0" d="M1489.52,-375.88C1477.46,-339.48 1454.32,-252.47 1482.69,-188 1510.9,-123.89 1580.7,-74.92 1620.56,-51.06"/>
<polygon fill="#b0b0b0" stroke="#b0b0b0" points="1622.44,-54.02 1629.3,-45.95 1618.9,-47.98 1622.44,-54.02"/>
</g>
<!-- N11 -->
<g id="node24" class="node">
<title>N11</title>
<ellipse fill="white" stroke="#b0b0b0" cx="1731.69" cy="-214" rx="27" ry="18"/>
<text text-anchor="middle" x="1731.69" y="-210.9" font-family="Times,serif" font-size="12.00" fill="BLUE">2.2</text>
</g>
<!-- N11&#45;&gt;N3 -->
<g id="edge1" class="edge">
<title>N11&#45;&gt;N3</title>
<path fill="none" stroke="#b0b0b0" d="M1724.12,-196.57C1709.78,-165.45 1678.56,-97.67 1661.46,-60.55"/>
<polygon fill="#b0b0b0" stroke="#b0b0b0" points="1664.6,-59.01 1657.24,-51.39 1658.24,-61.93 1664.6,-59.01"/>
</g>
<!-- N25 -->
<g id="node26" class="node">
<title>N25</title>
<ellipse fill="white" stroke="#b0b0b0" cx="2552.69" cy="-214" rx="33.49" ry="18"/>
<text text-anchor="middle" x="2552.69" y="-210.9" font-family="Times,serif" font-size="12.00" fill="BLUE">8.5.53</text>
</g>
<!-- N24 -->
<g id="node27" class="node">
<title>N24</title>
<ellipse fill="white" stroke="#b0b0b0" cx="2667.69" cy="-214" rx="33.49" ry="18"/>
<text text-anchor="middle" x="2667.69" y="-210.9" font-family="Times,serif" font-size="12.00" fill="BLUE">8.5.53</text>
</g>
<!-- N34 -->
<g id="node28" class="node">
<title>N34</title>
<ellipse fill="white" stroke="#b0b0b0" cx="922.69" cy="-754" rx="68.89" ry="18"/>
<text text-anchor="middle" x="922.69" y="-750.9" font-family="Times,serif" font-size="12.00" fill="#000000">2.6&#45;SNAPSHOT</text>
</g>
<!-- N34&#45;&gt;N30 -->
<g id="edge13" class="edge">
<title>N34&#45;&gt;N30</title>
<path fill="none" stroke="#b0b0b0" d="M991.81,-753.68C1202.71,-754.4 1832.94,-746 1987.69,-623 2050.54,-573.05 2065.81,-471.1 2069.51,-422.27"/>
<polygon fill="#b0b0b0" stroke="#b0b0b0" points="2073.01,-422.35 2070.17,-412.14 2066.03,-421.9 2073.01,-422.35"/>
</g>
<!-- N34&#45;&gt;N1 -->
<g id="edge29" class="edge">
<title>N34&#45;&gt;N1</title>
<path fill="none" stroke="#b0b0b0" d="M856.8,-748.54C615.56,-729.91 -193.37,-645.83 42.69,-368 152.66,-238.57 693.66,-218.39 898.71,-215.43"/>
<polygon fill="#b0b0b0" stroke="#b0b0b0" points="898.85,-218.93 908.8,-215.3 898.76,-211.93 898.85,-218.93"/>
</g>
<!-- N34&#45;&gt;N33 -->
<g id="edge7" class="edge">
<title>N34&#45;&gt;N33</title>
<path fill="none" stroke="#b0b0b0" d="M927.68,-735.93C936.76,-704.83 956.07,-638.73 966.9,-601.65"/>
<polygon fill="#b0b0b0" stroke="#b0b0b0" points="970.27,-602.6 969.72,-592.02 963.55,-600.63 970.27,-602.6"/>
</g>
<!-- N32 -->
<g id="node34" class="node">
<title>N32</title>
<ellipse fill="white" stroke="#b0b0b0" cx="450.69" cy="-394" rx="68.89" ry="18"/>
<text text-anchor="middle" x="450.69" y="-390.9" font-family="Times,serif" font-size="12.00" fill="#000000">2.6&#45;SNAPSHOT</text>
</g>
<!-- N34&#45;&gt;N32 -->
<g id="edge41" class="edge">
<title>N34&#45;&gt;N32</title>
<path fill="none" stroke="#b0b0b0" d="M901.18,-736.69C825,-678.9 567.86,-483.87 480.23,-417.41"/>
<polygon fill="#b0b0b0" stroke="#b0b0b0" points="482.14,-414.46 472.05,-411.2 477.91,-420.04 482.14,-414.46"/>
</g>
<!-- N12 -->
<g id="node29" class="node">
<title>N12</title>
<ellipse fill="white" stroke="#b0b0b0" cx="1967.69" cy="-214" rx="27" ry="18"/>
<text text-anchor="middle" x="1967.69" y="-210.9" font-family="Times,serif" font-size="12.00" fill="BLUE">3.0</text>
</g>
<!-- N12&#45;&gt;N13 -->
<g id="edge28" class="edge">
<title>N12&#45;&gt;N13</title>
<path fill="none" stroke="#b0b0b0" d="M1971.43,-195.93C1978.21,-164.97 1992.6,-99.3 2000.75,-62.13"/>
<polygon fill="#b0b0b0" stroke="#b0b0b0" points="2004.24,-62.53 2002.96,-52.02 1997.4,-61.03 2004.24,-62.53"/>
</g>
<!-- N12&#45;&gt;N14 -->
<g id="edge16" class="edge">
<title>N12&#45;&gt;N14</title>
<path fill="none" stroke="#b0b0b0" d="M1963.95,-195.93C1957.17,-164.97 1942.78,-99.3 1934.63,-62.13"/>
<polygon fill="#b0b0b0" stroke="#b0b0b0" points="1937.98,-61.03 1932.42,-52.02 1931.14,-62.53 1937.98,-61.03"/>
</g>
<!-- N10&#45;&gt;N1 -->
<g id="edge24" class="edge">
<title>N10&#45;&gt;N1</title>
<path fill="none" stroke="#b0b0b0" d="M1682.22,-381.32C1548.8,-349.82 1181.93,-263.21 1037.36,-229.09"/>
<polygon fill="#b0b0b0" stroke="#b0b0b0" points="1037.88,-225.61 1027.34,-226.72 1036.27,-232.43 1037.88,-225.61"/>
</g>
<!-- N10&#45;&gt;N15 -->
<g id="edge23" class="edge">
<title>N10&#45;&gt;N15</title>
<path fill="none" stroke="#b0b0b0" d="M1724.21,-375.93C1710.51,-344.67 1681.32,-278.06 1665.12,-241.09"/>
<polygon fill="#b0b0b0" stroke="#b0b0b0" points="1668.14,-239.25 1660.92,-231.5 1661.73,-242.06 1668.14,-239.25"/>
</g>
<!-- N10&#45;&gt;N11 -->
<g id="edge4" class="edge">
<title>N10&#45;&gt;N11</title>
<path fill="none" stroke="#b0b0b0" d="M1731.69,-375.93C1731.69,-344.97 1731.69,-279.3 1731.69,-242.13"/>
<polygon fill="#b0b0b0" stroke="#b0b0b0" points="1735.19,-242.02 1731.69,-232.02 1728.19,-242.02 1735.19,-242.02"/>
</g>
<!-- N10&#45;&gt;N12 -->
<g id="edge25" class="edge">
<title>N10&#45;&gt;N12</title>
<path fill="none" stroke="#b0b0b0" d="M1753.47,-376.57C1797.3,-343.52 1895.93,-269.13 1942.47,-234.02"/>
<polygon fill="#b0b0b0" stroke="#b0b0b0" points="1944.65,-236.76 1950.53,-227.94 1940.44,-231.17 1944.65,-236.76"/>
</g>
<!-- N8 -->
<g id="node31" class="node">
<title>N8</title>
<ellipse fill="white" stroke="#b0b0b0" cx="221.69" cy="-394" rx="68.89" ry="18"/>
<text text-anchor="middle" x="221.69" y="-390.9" font-family="Times,serif" font-size="12.00" fill="#000000">2.6&#45;SNAPSHOT</text>
</g>
<!-- N8&#45;&gt;N1 -->
<g id="edge26" class="edge">
<title>N8&#45;&gt;N1</title>
<path fill="none" stroke="#b0b0b0" d="M263.14,-379.54C275.78,-375.62 289.75,-371.46 302.69,-368 525.75,-308.39 794.24,-252.07 914.29,-227.68"/>
<polygon fill="#b0b0b0" stroke="#b0b0b0" points="915.3,-231.05 924.41,-225.63 913.91,-224.19 915.3,-231.05"/>
</g>
<!-- N21&#45;&gt;N23 -->
<g id="edge36" class="edge">
<title>N21&#45;&gt;N23</title>
<path fill="none" stroke="#b0b0b0" d="M2574.34,-380.14C2610.47,-358.23 2684.63,-311.31 2740.69,-263 2749.35,-255.54 2758.11,-246.58 2765.57,-238.43"/>
<polygon fill="#b0b0b0" stroke="#b0b0b0" points="2768.21,-240.73 2772.28,-230.95 2763,-236.06 2768.21,-240.73"/>
</g>
<!-- N21&#45;&gt;N27 -->
<g id="edge17" class="edge">
<title>N21&#45;&gt;N27</title>
<path fill="none" stroke="#b0b0b0" d="M2582.01,-385.4C2640.09,-369.41 2772.31,-328.28 2866.69,-263 2876.37,-256.3 2885.55,-247.22 2893.06,-238.75"/>
<polygon fill="#b0b0b0" stroke="#b0b0b0" points="2895.91,-240.81 2899.72,-230.93 2890.57,-236.28 2895.91,-240.81"/>
</g>
<!-- N21&#45;&gt;N22 -->
<g id="edge6" class="edge">
<title>N21&#45;&gt;N22</title>
<path fill="none" stroke="#b0b0b0" d="M2532.74,-379.37C2500.1,-356.72 2433.81,-309.23 2382.69,-263 2374.22,-255.34 2365.49,-246.33 2358.01,-238.21"/>
<polygon fill="#b0b0b0" stroke="#b0b0b0" points="2360.57,-235.82 2351.26,-230.76 2355.38,-240.52 2360.57,-235.82"/>
</g>
<!-- N21&#45;&gt;N26 -->
<g id="edge27" class="edge">
<title>N21&#45;&gt;N26</title>
<path fill="none" stroke="#b0b0b0" d="M2542.28,-376.89C2522.15,-345.73 2477.75,-277 2453.78,-239.91"/>
<polygon fill="#b0b0b0" stroke="#b0b0b0" points="2456.52,-237.7 2448.16,-231.2 2450.64,-241.5 2456.52,-237.7"/>
</g>
<!-- N21&#45;&gt;N25 -->
<g id="edge12" class="edge">
<title>N21&#45;&gt;N25</title>
<path fill="none" stroke="#b0b0b0" d="M2552.69,-375.93C2552.69,-344.97 2552.69,-279.3 2552.69,-242.13"/>
<polygon fill="#b0b0b0" stroke="#b0b0b0" points="2556.19,-242.02 2552.69,-232.02 2549.19,-242.02 2556.19,-242.02"/>
</g>
<!-- N21&#45;&gt;N24 -->
<g id="edge39" class="edge">
<title>N21&#45;&gt;N24</title>
<path fill="none" stroke="#b0b0b0" d="M2563.1,-376.89C2583.23,-345.73 2627.63,-277 2651.6,-239.91"/>
<polygon fill="#b0b0b0" stroke="#b0b0b0" points="2654.74,-241.5 2657.22,-231.2 2648.86,-237.7 2654.74,-241.5"/>
</g>
<!-- N32&#45;&gt;N1 -->
<g id="edge33" class="edge">
<title>N32&#45;&gt;N1</title>
<path fill="none" stroke="#b0b0b0" d="M491.17,-379.33C586.2,-347.23 823.39,-267.12 927.43,-231.98"/>
<polygon fill="#b0b0b0" stroke="#b0b0b0" points="928.72,-235.23 937.07,-228.72 926.48,-228.6 928.72,-235.23"/>
</g>
</g>
</svg>
